<?xml version="1.0" encoding="UTF-8"?>
<svg width="32px" height="32px" viewBox="0 0 32 32" version="1.1" xmlns="http://www.w3.org/2000/svg" xmlns:xlink="http://www.w3.org/1999/xlink">
<g stroke="none" stroke-width="1" fill="none" fill-rule="evenodd">
    <rect fill="#121212" x="0" y="0" width="32" height="32"></rect>
    <path d="M20.0046136,8.09510086 L20.0046136,3 L26.3160323,3 L26.3160323,8.09510086 L32,8.09510086 L32,13.4149856 L26.3160323,13.4149856 L26.3160323,21.8069164 C26.3160323,22.431316 26.4636678,22.8808838 26.7589389,23.1556196 C27.0542099,23.4303554 27.5463283,23.5677233 28.2352941,23.5677233 L31.9630911,23.5677233 L31.9630911,29 L27.2756632,29 C24.9873126,29 23.2033833,28.4317963 21.9238754,27.295389 C20.6443676,26.1589817 20.0046136,24.3045149 20.0046136,21.7319885 L20.0046136,13.4149856 L12.0692042,13.4149856 L12.0692042,21.8069164 C12.0692042,22.431316 12.2168397,22.8808838 12.5121107,23.1556196 C12.8073818,23.4303554 13.2995002,23.5677233 13.988466,23.5677233 L17.716263,23.5677233 L17.716263,29 L13.0288351,29 C10.7404844,29 8.95655517,28.4317963 7.67704729,27.295389 C6.39753941,26.1589817 5.75778547,24.3045149 5.75778547,21.7319885 L5.75778547,13.4149856 L0,13.4149856 L0,8.09510086 L5.75778547,8.09510086 L5.75778547,3 L12.0692042,3 L12.0692042,8.09510086 L20.0046136,8.09510086 Z" fill="#FFFFFF" fill-rule="nonzero"></path>
</g>
</svg>